<svg width="83" height="56" viewBox="0 0 83 56" fill="none" xmlns="http://www.w3.org/2000/svg">
<rect x="0.446655" y="0.885498" width="81.6313" height="55.0293" rx="14" fill="#EF4444"/>
<path d="M31.0655 20.9891C30.2191 20.1102 30.2191 18.6829 31.0655 17.804C31.9118 16.925 33.2863 16.925 34.1326 17.804L41.2623 25.2149L48.3988 17.811C49.2451 16.9321 50.6196 16.9321 51.466 17.811C52.3123 18.6899 52.3123 20.1172 51.466 20.9961L44.3295 28.4L51.4592 35.811C52.3056 36.6899 52.3056 38.1172 51.4592 38.9961C50.6128 39.8751 49.2384 39.8751 48.392 38.9961L41.2623 31.5852L34.1259 38.9891C33.2795 39.868 31.905 39.868 31.0587 38.9891C30.2123 38.1102 30.2123 36.6829 31.0587 35.804L38.1951 28.4L31.0655 20.9891Z" fill="white"/>
</svg>
